<svg xmlns="http://www.w3.org/2000/svg" viewBox="0 0 852.9 135.8"><path d="M433.8 61.6c0-8.9-7.2-16.1-16.1-16.1h-21.4v47h8.3V77.6h12.6l6.9 14.9h9.5l-7.9-16.9c4.8-2.7 8.1-8 8.1-14zm-16.1 7.5h-13.2V54.2h13.2c4.1 0 7.5 3.3 7.5 7.5 0 4.1-3.4 7.4-7.5 7.4zm123.1-23.5h-21.4v47h8.3V77.7h13.1c8.9 0 16.1-7.2 16.1-16.1 0-8.8-7.3-16-16.1-16zm0 23.5h-13.2V54.2h13.2c4.1 0 7.5 3.3 7.5 7.5-.1 4.1-3.4 7.4-7.5 7.4zm-286.5 16c-8.6 0-15.1-6.9-15.1-16s6.5-16 15.1-16c4.9 0 9.6 2.3 12.6 6.3l5.8-5.6c-4.5-5.7-11.2-8.9-18.4-8.9-13.1 0-23.8 10.9-23.8 24.4s10.7 24.4 23.8 24.4c7.9 0 15.3-4 19.7-10.7l-6.3-5c-2.9 4.3-7.9 7.1-13.4 7.1zm-45.6-39.5h-12.1l-14.6 47h8.7l2.1-6.7h19.7l2.1 6.7h8.7l-14.6-47zm-13.5 32.5l7.5-24 7.5 24h-15zm657.7-32.5h-36.6v8.3h14.2v38.7h8.2V53.9h14.2zm-389.7-.1h-15.5v47.1h15.5c13 0 23.5-10.5 23.5-23.5s-10.5-23.6-23.5-23.6zm15.2 23.6c0 8.2-6.7 14.9-14.9 14.9h-7.6V54.2h7.6c8.3 0 14.9 6.6 14.9 14.9zM708 45.6h-28.8V54h20.5v18.9c0 6.6-3.3 12.2-11.8 12.2-7.8 0-12.3-6.2-12.3-6.2l-5.7 5.6s6.1 8.9 18 8.9c12 0 20.2-8.2 20.2-19.4V45.6h-.1zM307.1 85.1c-8.6 0-15.1-6.9-15.1-16s6.5-16 15.1-16c4.9 0 9.6 2.3 12.6 6.3l5.8-5.6c-4.5-5.7-11.2-8.9-18.4-8.9-13.1 0-23.8 10.9-23.8 24.4s10.7 24.4 23.8 24.4c7.9 0 15.3-4 19.7-10.7l-6.3-5c-2.9 4.3-7.9 7.1-13.4 7.1zm52.8-40.4c-13.1 0-23.7 10.9-23.7 24.4s10.6 24.4 23.7 24.4 23.7-10.9 23.7-24.4-10.6-24.4-23.7-24.4zm0 40.3c-8.4 0-15.2-7.2-15.2-16s6.8-16 15.2-16 15.2 7.2 15.2 16-6.8 16-15.2 16zm279.6-40.3c-13.1 0-23.7 10.9-23.7 24.4s10.6 24.4 23.7 24.4 23.7-10.9 23.7-24.4-10.6-24.4-23.7-24.4zm0 40.4c-8.4 0-15.2-7.2-15.2-16s6.8-16 15.2-16 15.2 7.2 15.2 16-6.8 16-15.2 16zm-34-23.4c0-8.9-7.2-16.1-16.1-16.1H568v47h8.3V77.7h12.5l6.9 14.9h9.5l-7.9-16.9c4.9-2.8 8.2-8 8.2-14zm-16.1 7.4h-13.2V54.2h13.2c4.1 0 7.5 3.3 7.5 7.5-.1 4.1-3.4 7.4-7.5 7.4zm166-15.2v-8.3h-33.2v47h33.2v-8.4h-24.9V73.3h18.4v-8.4h-18.4v-11zm33.8 31.2c-8.6 0-15.1-6.9-15.1-16s6.5-16 15.1-16c4.9 0 9.6 2.3 12.6 6.3l5.8-5.6c-4.5-5.7-11.2-8.9-18.4-8.9-13.1 0-23.8 10.9-23.8 24.4s10.7 24.4 23.8 24.4c7.9 0 15.3-4 19.7-10.7l-6.3-5c-2.9 4.4-7.9 7.1-13.4 7.1zM88.1 135.8h48L92.3 0h-48l11.6 36.1H32.4L0 135.8h48l19.5-62.3h.3l20.3 62.3zM85.8 9l38 117.8H94.7L56.7 9h29.1zM65.1 64.5H47.3l-6.4-19.4h18l6.2 19.4zm-23.6 62.3h-29l22.8-70.1 5.6 16.8h17.4l-16.8 53.3z" fill="#fff"/></svg>