<svg xmlns="http://www.w3.org/2000/svg" viewBox="0 0 400.3 72"><path d="M226.1 0c-18.6.9-33.6 15.9-34.2 34.2-.9 20.7 15.6 37.8 36 37.8 11.1 0 21.3-5.1 27.9-13.2.6-.9.6-2.1-.3-2.7l-11.7-7.2c-.9-.6-1.8-.3-2.4.3-3.3 3.6-8.1 5.7-13.2 5.7-7.5 0-13.8-4.8-16.5-11.1h50.4c.9 0 1.8-.6 1.8-1.5.3-2.1.6-4.2.6-6.3-.6-20.4-17.7-36.9-38.4-36zm-15.3 29.1c2.4-7.2 9-12.3 17.1-12.3 7.8 0 14.7 5.1 17.1 12.3h-34.2zM317.5 1.2C313.3.9 301.3.9 294.7 12l-2.1-8.7c-.3-.9-.9-1.5-1.8-1.5h-11.1c-.9 0-1.8.9-1.8 1.8v64.5c0 .9.9 1.8 1.8 1.8h15c.9 0 1.8-.9 1.8-1.8v-36c1.5-5.7 5.4-12.9 15.9-12.9 2.1 0 3.3 0 4.5.3.9.3 1.8-.6 1.8-1.8V3c.3-.9-.3-1.5-1.2-1.8zM364.3 0c-19.8 0-36 16.2-36 36s16.2 36 36 36 36-16.2 36-36c0-20.1-16.2-36-36-36zM382 37.2c0 9.9-8.1 18-18 18s-18-8.1-18-18v-2.7c0-9.9 8.1-18 18-18s18 8.1 18 18v2.7zM96.6 1.8H81.9c-.9 0-1.8.9-1.8 1.8v64.5c0 .9.9 1.8 1.8 1.8h14.7c.9 0 1.8-.9 1.8-1.8V3.6c0-.9-.6-1.8-1.8-1.8zM150.2 0c-19.2.3-35.1 16.2-35.4 35.4-.3 20.1 15.9 36.6 36 36.6 11.1 0 21.3-5.1 27.9-13.2.6-.9.6-2.1-.3-2.7l-11.7-7.2c-.9-.6-1.8-.3-2.4.3-3.3 3.6-8.1 6-13.2 6-9.9 0-18-7.5-18-19.2 0-11.4 8.1-19.2 18-19.2 5.7 0 10.5 2.7 13.8 6.6.6.6 1.5.9 2.4.3l12-7.2c.9-.6 1.2-1.8.6-2.7C173 5.1 162.2-.3 150.2 0zM35.4 0C16.2.3.3 16.2 0 35.4-.3 55.5 15.9 72 36 72c11.1 0 21.3-5.1 27.9-13.2.6-.9.6-2.1-.3-2.7l-11.7-7.2c-.9-.6-1.8-.3-2.4.3-3.3 3.6-8.1 6-13.2 6-9.9 0-18-7.5-18-19.2 0-11.4 8.1-19.2 18-19.2 5.7 0 10.5 2.7 13.8 6.6.6.6 1.5.9 2.4.3l12-7.2c.9-.6 1.2-1.8.6-2.7C57.9 5.1 47.4-.3 35.4 0z" fill="#fff"/></svg>