<svg xmlns="http://www.w3.org/2000/svg" viewBox="0 0 106.8 24.2"><path d="M94.7-.2C88-.2 82.6 5.2 82.6 11.9S88 24 94.7 24s12.1-5.4 12.1-12.1c0-6.7-5.4-12.1-12.1-12.1zm0 19c-3.8 0-6.9-3.1-6.9-6.9S90.9 5 94.7 5s6.9 3.1 6.9 6.9-3.1 6.9-6.9 6.9zM76 9.8H65.8c-.3 0-.6.3-.6.6v4c0 .3.3.6.6.6h5.6v1.4c-1.3 1.6-3.2 2.5-5.3 2.5-3.8 0-6.9-3.1-6.9-6.9s3.1-6.9 6.9-6.9c1.8 0 3.6.7 4.9 2 .2.2.6.2.8 0l3-2.6c.3-.2.3-.6 0-.8C72.5 1.3 69.4 0 66.1 0 59.4 0 54 5.4 54 12.1s5.4 12.1 12.1 12.1c4 0 7.8-2 10-5.3l.4-.5c.1-.1.1-.2.1-.3v-7.5c-.1-.5-.3-.8-.6-.8zM47.9 8.5c0-2.2-.8-4.3-2.3-5.8C44 1.1 41.9.2 39.6.2H27.4c-.3 0-.6.3-.6.6v22.5c0 .3.3.6.6.6h4c.3 0 .6-.3.6-.6v-6.8h5.3l4 7c.1.2.3.3.5.3h4.7c.5 0 .8-.5.5-.9l-4.2-7.1c3-1.3 5-4.1 5.1-7.3zM32 5.3h7.7c.8 0 1.5.3 2.1.8.6.6.9 1.3.9 2.2 0 1.6-1.4 2.9-3 2.9h-7.6L32 5.3zM19.5 19.2v4c0 .3-.3.6-.6.6H5.7c-.3 0-.6-.3-.6-.6v-4.6h13.7c.5 0 .7.3.7.6zm-7.7-9.9H.1V18c0 .3.3.6.6.6h4.6v-4.1h6.5c.3 0 .6-.3.6-.6v-4c-.1-.3-.3-.6-.6-.6zM17.3.2H.6C.3.2 0 .5 0 .8v4.6h17.3c.3 0 .6-.3.6-.6v-4c0-.4-.2-.6-.6-.6z" fill="#fff"/></svg>